<svg width="65" height="65" viewBox="0 0 65 65" fill="none" xmlns="http://www.w3.org/2000/svg">
<g id="instagram">
<path id="bg" d="M54.8438 0H10.1562C4.54711 0 0 4.54711 0 10.1562V54.8438C0 60.4529 4.54711 65 10.1562 65H54.8438C60.4529 65 65 60.4529 65 54.8438V10.1562C65 4.54711 60.4529 0 54.8438 0Z" fill="#F00073"/>
<g id="instagram_2">
<path d="M32.5 18.6875C36.9688 18.6875 37.5781 18.6875 39.4062 18.6875C41.0312 18.6875 41.8438 19.0938 42.4531 19.2969C43.2656 19.7031 43.875 19.9063 44.4844 20.5156C45.0938 21.125 45.5 21.7344 45.7031 22.5469C45.9063 23.1563 46.1094 23.9688 46.3125 25.5938C46.3125 27.4219 46.3125 27.8281 46.3125 32.5C46.3125 37.1719 46.3125 37.5781 46.3125 39.4062C46.3125 41.0312 45.9063 41.8438 45.7031 42.4531C45.2969 43.2656 45.0938 43.875 44.4844 44.4844C43.875 45.0938 43.2656 45.5 42.4531 45.7031C41.8438 45.9063 41.0312 46.1094 39.4062 46.3125C37.5781 46.3125 37.1719 46.3125 32.5 46.3125C27.8281 46.3125 27.4219 46.3125 25.5938 46.3125C23.9688 46.3125 23.1563 45.9063 22.5469 45.7031C21.7344 45.2969 21.125 45.0938 20.5156 44.4844C19.9063 43.875 19.5 43.2656 19.2969 42.4531C19.0938 41.8438 18.8906 41.0312 18.6875 39.4062C18.6875 37.5781 18.6875 37.1719 18.6875 32.5C18.6875 27.8281 18.6875 27.4219 18.6875 25.5938C18.6875 23.9688 19.0938 23.1563 19.2969 22.5469C19.7031 21.7344 19.9063 21.125 20.5156 20.5156C21.125 19.9063 21.7344 19.5 22.5469 19.2969C23.1563 19.0938 23.9688 18.8906 25.5938 18.6875C27.4219 18.6875 28.0313 18.6875 32.5 18.6875ZM32.5 15.6406C27.8281 15.6406 27.4219 15.6406 25.5938 15.6406C23.7656 15.6406 22.5469 16.0469 21.5313 16.4531C20.5156 16.8594 19.5 17.4688 18.4844 18.4844C17.4688 19.5 17.0625 20.3125 16.4531 21.5313C16.0469 22.5469 15.8438 23.7656 15.6406 25.5938C15.6406 27.4219 15.6406 28.0313 15.6406 32.5C15.6406 37.1719 15.6406 37.5781 15.6406 39.4062C15.6406 41.2344 16.0469 42.4531 16.4531 43.4688C16.8594 44.4844 17.4688 45.5 18.4844 46.5156C19.5 47.5312 20.3125 47.9375 21.5313 48.5469C22.5469 48.9531 23.7656 49.1562 25.5938 49.3594C27.4219 49.3594 28.0313 49.3594 32.5 49.3594C36.9688 49.3594 37.5781 49.3594 39.4062 49.3594C41.2344 49.3594 42.4531 48.9531 43.4688 48.5469C44.4844 48.1406 45.5 47.5312 46.5156 46.5156C47.5312 45.5 47.9375 44.6875 48.5469 43.4688C48.9531 42.4531 49.1562 41.2344 49.3594 39.4062C49.3594 37.5781 49.3594 36.9688 49.3594 32.5C49.3594 28.0313 49.3594 27.4219 49.3594 25.5938C49.3594 23.7656 48.9531 22.5469 48.5469 21.5313C48.1406 20.5156 47.5312 19.5 46.5156 18.4844C45.5 17.4688 44.6875 17.0625 43.4688 16.4531C42.4531 16.0469 41.2344 15.8438 39.4062 15.6406C37.5781 15.6406 37.1719 15.6406 32.5 15.6406Z" fill="white"/>
<path d="M32.5 23.7656C27.625 23.7656 23.7656 27.625 23.7656 32.5C23.7656 37.375 27.625 41.2344 32.5 41.2344C37.375 41.2344 41.2344 37.375 41.2344 32.5C41.2344 27.625 37.375 23.7656 32.5 23.7656ZM32.5 38.1875C29.4531 38.1875 26.8125 35.75 26.8125 32.5C26.8125 29.4531 29.25 26.8125 32.5 26.8125C35.5469 26.8125 38.1875 29.25 38.1875 32.5C38.1875 35.5469 35.5469 38.1875 32.5 38.1875Z" fill="white"/>
<path d="M41.4375 25.5938C42.5593 25.5938 43.4688 24.6843 43.4688 23.5625C43.4688 22.4407 42.5593 21.5313 41.4375 21.5313C40.3157 21.5313 39.4062 22.4407 39.4062 23.5625C39.4062 24.6843 40.3157 25.5938 41.4375 25.5938Z" fill="white"/>
</g>
</g>
</svg>
