<svg width="65" height="65" viewBox="0 0 65 65" fill="none" xmlns="http://www.w3.org/2000/svg">
<g id="telegram">
<path id="bg" d="M54.8438 0H10.1562C4.54711 0 0 4.54711 0 10.1562V54.8438C0 60.4529 4.54711 65 10.1562 65H54.8438C60.4529 65 65 60.4529 65 54.8438V10.1562C65 4.54711 60.4529 0 54.8438 0Z" fill="#0088CC"/>
<path id="telegram_2" d="M16.453 31.9075C25.1771 28.1065 30.9945 25.6007 33.9053 24.39C42.2162 20.9332 43.9431 20.3327 45.0687 20.3127C45.3163 20.3085 45.8698 20.3699 46.2283 20.6608C46.5311 20.9065 46.6144 21.2384 46.6543 21.4713C46.6941 21.7042 46.7438 22.2348 46.7043 22.6494C46.2539 27.3814 44.3052 38.8649 43.3138 44.1649C42.8943 46.4075 42.0683 47.1595 41.2686 47.233C39.5307 47.393 38.2111 46.0845 36.5278 44.9812C33.8939 43.2546 32.4059 42.1798 29.8493 40.495C26.8946 38.5479 28.81 37.4778 30.4939 35.7289C30.9345 35.2712 38.5917 28.3064 38.7399 27.6746C38.7584 27.5956 38.7756 27.301 38.6006 27.1455C38.4256 26.99 38.1674 27.0432 37.981 27.0855C37.7168 27.1454 33.5091 29.9265 25.3579 35.4289C24.1636 36.249 23.0818 36.6486 22.1125 36.6276C21.044 36.6045 18.9886 36.0235 17.4606 35.5268C15.5864 34.9176 14.0969 34.5955 14.2266 33.5609C14.2942 33.022 15.0363 32.4708 16.453 31.9075Z" fill="white"/>
</g>
</svg>
