<svg width="65" height="65" viewBox="0 0 65 65" fill="none" xmlns="http://www.w3.org/2000/svg">
<g id="vk">
<path id="Vector" d="M0 31.2C0 16.4883 0 9.14333 4.55 4.55C9.165 0 16.51 0 31.2 0H33.8C48.5117 0 55.8567 0 60.45 4.55C65 9.165 65 16.51 65 31.2V33.8C65 48.5117 65 55.8567 60.45 60.45C55.835 65 48.49 65 33.8 65H31.2C16.4883 65 9.14333 65 4.55 60.45C0 55.835 0 48.49 0 33.8V31.2Z" fill="#0077FF"/>
<path id="Vector_2" d="M34.58 46.8217C19.76 46.8217 11.31 36.6817 10.9634 19.7817H18.4167C18.655 32.175 24.115 37.4183 28.4484 38.5017V19.7817H35.4467V30.4633C39.715 30.0083 44.2217 25.1333 45.7384 19.76H52.715C52.1462 22.5415 51.0098 25.1758 49.377 27.4983C47.7441 29.8208 45.6499 31.7817 43.225 33.2583C45.9311 34.6052 48.3208 36.5104 50.2367 38.8483C52.1526 41.1863 53.5511 43.9038 54.34 46.8217H46.6484C45.0017 41.6867 40.885 37.7 35.4467 37.1583V46.8217H34.6017H34.58Z" fill="white"/>
</g>
</svg>
